<svg width="13" height="16" viewBox="0 0 13 16" fill="none" xmlns="http://www.w3.org/2000/svg">
<path d="M6.61143 4.99077C6.01962 4.99077 5.10353 4.30562 4.1388 4.33038C2.86601 4.34689 1.6986 5.08157 1.04193 6.24552C-0.279505 8.58165 0.70144 12.0322 1.99045 13.9308C2.6228 14.8554 3.36864 15.8955 4.35769 15.8625C5.30621 15.8212 5.66292 15.2351 6.81411 15.2351C7.95719 15.2351 8.28147 15.8625 9.28674 15.8377C10.3082 15.8212 10.9568 14.8966 11.581 13.9638C12.3025 12.8907 12.6025 11.8506 12.6187 11.7928C12.5944 11.7846 10.6325 11.0168 10.6082 8.70547C10.592 6.77383 12.1566 5.84928 12.2296 5.80801C11.3378 4.47897 9.96773 4.33038 9.48942 4.29736C8.24094 4.1983 7.19514 4.99077 6.61143 4.99077ZM8.71925 3.04262C9.24621 2.39873 9.59481 1.49895 9.49752 0.607422C8.74357 0.640441 7.83559 1.11923 7.29242 1.76311C6.806 2.3327 6.38444 3.24899 6.49794 4.12401C7.33296 4.19005 8.1923 3.6865 8.71925 3.04262Z" fill="black"/>
</svg>
