<svg width="16" height="16" viewBox="0 0 16 16" fill="none" xmlns="http://www.w3.org/2000/svg">
<path d="M15.1617 6.8469H7.82906V9.79868H12.018C11.8373 10.7528 11.2894 11.5598 10.4634 12.1005C9.76521 12.5576 8.87426 12.828 7.82703 12.828C5.79955 12.828 4.08462 11.4863 3.47171 9.68339C3.31747 9.22621 3.22817 8.73723 3.22817 8.23434C3.22817 7.73144 3.31747 7.24246 3.47171 6.78528C4.08665 4.9844 5.80158 3.64268 7.82906 3.64268C8.97168 3.64268 9.99658 4.0283 10.8043 4.78364L13.0368 2.59515C11.6872 1.36276 9.92757 0.607422 7.82906 0.607422C4.78683 0.607422 2.15456 2.31687 0.873938 4.80948C0.346266 5.83912 0.0458984 7.00393 0.0458984 8.23632C0.0458984 9.46871 0.346266 10.6315 0.873938 11.6612C2.15456 14.1538 4.78683 15.8632 7.82906 15.8632C9.93163 15.8632 11.6932 15.1795 12.98 14.0146C14.4513 12.6868 15.3017 10.7309 15.3017 8.40727C15.3017 7.86661 15.253 7.34781 15.1617 6.8469Z" fill="black"/>
</svg>
