<svg width="16" height="15" viewBox="0 0 16 15" fill="none" xmlns="http://www.w3.org/2000/svg">
<path d="M12.175 9.05372L11.551 8.01791C11.42 7.78703 11.3014 7.35024 11.3014 7.09441V5.51572C11.3014 4.04935 10.4403 2.78266 9.1986 2.18987C8.87413 1.6158 8.2751 1.26013 7.58871 1.26013C6.90857 1.26013 6.29706 1.62828 5.97259 2.20859C4.75582 2.81386 3.91343 4.06807 3.91343 5.51572V7.09441C3.91343 7.35024 3.79488 7.78703 3.66384 8.01167L3.03361 9.05372C2.78402 9.4718 2.72786 9.93355 2.88386 10.3579C3.03361 10.7759 3.38929 11.1004 3.85104 11.2564C5.06157 11.6682 6.3345 11.8679 7.60743 11.8679C8.88037 11.8679 10.1533 11.6682 11.3638 11.2626C11.8006 11.1191 12.1376 10.7884 12.2998 10.3579C12.4621 9.92731 12.4184 9.45308 12.175 9.05372Z" fill="#0C0507" fill-opacity="0.83"/>
<path d="M9.36146 12.4981C9.09939 13.2219 8.40676 13.7399 7.59558 13.7399C7.10263 13.7399 6.61592 13.5402 6.27273 13.1845C6.07305 12.9973 5.9233 12.7477 5.83594 12.4919C5.91706 12.5044 5.99817 12.5106 6.08553 12.5231C6.22905 12.5418 6.37881 12.5605 6.52856 12.573C6.88423 12.6042 7.24615 12.6229 7.60806 12.6229C7.96373 12.6229 8.3194 12.6042 8.66884 12.573C8.79987 12.5605 8.93091 12.5543 9.05571 12.5356C9.15555 12.5231 9.25538 12.5106 9.36146 12.4981Z" fill="#0C0507" fill-opacity="0.83"/>
</svg>
