<svg width="25" height="25" viewBox="0 0 25 25" fill="none" xmlns="http://www.w3.org/2000/svg">
<path fill-rule="evenodd" clip-rule="evenodd" d="M6.57766 5.09438C4.03535 6.98211 2.7642 7.92598 2.26495 9.3202C2.2249 9.43204 2.18887 9.54535 2.15695 9.65989C1.75899 11.0878 2.24453 12.615 3.21561 15.6694C4.18668 18.7238 4.67222 20.251 5.81538 21.1671C5.90708 21.2406 6.00139 21.3106 6.09812 21.377C7.30388 22.2051 8.87511 22.2051 12.0176 22.2051C15.16 22.2051 16.7313 22.2051 17.937 21.377C18.0338 21.3106 18.1281 21.2406 18.2198 21.1671C19.3629 20.251 19.8485 18.7238 20.8196 15.6694C21.7906 12.615 22.2762 11.0878 21.8782 9.65989C21.8463 9.54535 21.8103 9.43204 21.7702 9.3202C21.271 7.92598 19.9998 6.98211 17.4575 5.09439C14.9152 3.20666 13.644 2.26278 12.1923 2.20835C12.0759 2.20399 11.9593 2.20399 11.8428 2.20835C10.3911 2.26278 9.11996 3.20665 6.57766 5.09438ZM10.1109 16.8872C9.71608 16.8872 9.39597 17.2144 9.39597 17.6179C9.39597 18.0215 9.71608 18.3487 10.1109 18.3487H13.9242C14.3191 18.3487 14.6392 18.0215 14.6392 17.6179C14.6392 17.2144 14.3191 16.8872 13.9242 16.8872H10.1109Z" fill="#7D7D7D"/>
</svg>
