<svg width="25" height="24" viewBox="0 0 25 24" fill="none" xmlns="http://www.w3.org/2000/svg">
<path d="M15.7676 9C15.7676 10.7949 14.3125 12.25 12.5176 12.25V13.75C15.1409 13.75 17.2676 11.6234 17.2676 9H15.7676ZM12.5176 12.25C10.7227 12.25 9.26758 10.7949 9.26758 9H7.76758C7.76758 11.6234 9.89423 13.75 12.5176 13.75V12.25ZM9.26758 9C9.26758 7.20507 10.7227 5.75 12.5176 5.75V4.25C9.89423 4.25 7.76758 6.37665 7.76758 9H9.26758ZM12.5176 5.75C14.3125 5.75 15.7676 7.20507 15.7676 9H17.2676C17.2676 6.37665 15.1409 4.25 12.5176 4.25V5.75ZM9.51758 16.75H15.5176V15.25H9.51758V16.75ZM3.26758 12C3.26758 6.89137 7.40894 2.75 12.5176 2.75V1.25C6.58052 1.25 1.76758 6.06294 1.76758 12H3.26758ZM12.5176 2.75C17.6262 2.75 21.7676 6.89137 21.7676 12H23.2676C23.2676 6.06294 18.4546 1.25 12.5176 1.25V2.75ZM21.7676 12C21.7676 14.6233 20.6765 16.9905 18.9215 18.6748L19.9601 19.7571C21.9977 17.8016 23.2676 15.0485 23.2676 12H21.7676ZM18.9215 18.6748C17.2587 20.2705 15.0033 21.25 12.5176 21.25V22.75C15.4058 22.75 18.0293 21.61 19.9601 19.7571L18.9215 18.6748ZM15.5176 16.75C17.0936 16.75 18.4091 17.8726 18.7052 19.3621L20.1764 19.0697C19.7435 16.8918 17.8231 15.25 15.5176 15.25V16.75ZM12.5176 21.25C10.0318 21.25 7.77642 20.2705 6.1137 18.6748L5.07508 19.7571C7.0059 21.61 9.6294 22.75 12.5176 22.75V21.25ZM6.1137 18.6748C4.35861 16.9905 3.26758 14.6233 3.26758 12H1.76758C1.76758 15.0485 3.03747 17.8016 5.07508 19.7571L6.1137 18.6748ZM9.51758 15.25C7.21203 15.25 5.29161 16.8918 4.85878 19.0697L6.33 19.3621C6.62604 17.8726 7.94154 16.75 9.51758 16.75V15.25Z" fill="#5E5F60"/>
</svg>
