<svg width="25" height="24" viewBox="0 0 25 24" fill="none" xmlns="http://www.w3.org/2000/svg">
<path d="M9.01758 19H8.51758C4.51758 19 2.51758 18 2.51758 13V8C2.51758 4 4.51758 2 8.51758 2H16.5176C20.5176 2 22.5176 4 22.5176 8V13C22.5176 17 20.5176 19 16.5176 19H16.0176C15.7076 19 15.4076 19.15 15.2176 19.4L13.7176 21.4C13.0576 22.28 11.9776 22.28 11.3176 21.4L9.81758 19.4C9.65758 19.18 9.28758 19 9.01758 19Z" stroke="#636366" stroke-width="1.5" stroke-miterlimit="10" stroke-linecap="round" stroke-linejoin="round"/>
<path d="M7.51758 8H17.5176" stroke="#636366" stroke-width="1.5" stroke-linecap="round" stroke-linejoin="round"/>
<path d="M7.51758 13H13.5176" stroke="#636366" stroke-width="1.5" stroke-linecap="round" stroke-linejoin="round"/>
</svg>
