<svg width="25" height="24" viewBox="0 0 25 24" fill="none" xmlns="http://www.w3.org/2000/svg">
<path d="M18.5576 13.55C18.1376 13.96 17.8976 14.55 17.9576 15.18C18.0476 16.26 19.0376 17.05 20.1176 17.05H22.0176V18.24C22.0176 20.31 20.3276 22 18.2576 22H6.77758C4.70758 22 3.01758 20.31 3.01758 18.24V11.51C3.01758 9.44001 4.70758 7.75 6.77758 7.75H18.2576C20.3276 7.75 22.0176 9.44001 22.0176 11.51V12.95H19.9976C19.4376 12.95 18.9276 13.17 18.5576 13.55Z" stroke="#636366" stroke-width="1.5" stroke-linecap="round" stroke-linejoin="round"/>
<path d="M3.01758 12.4101V7.8401C3.01758 6.6501 3.74758 5.59006 4.85758 5.17006L12.7976 2.17006C14.0376 1.70006 15.3676 2.62009 15.3676 3.95009V7.75008" stroke="#636366" stroke-width="1.5" stroke-linecap="round" stroke-linejoin="round"/>
<path d="M23.0764 13.9702V16.0302C23.0764 16.5802 22.6364 17.0302 22.0764 17.0502H20.1164C19.0364 17.0502 18.0464 16.2602 17.9564 15.1802C17.8964 14.5502 18.1364 13.9602 18.5564 13.5502C18.9264 13.1702 19.4364 12.9502 19.9964 12.9502H22.0764C22.6364 12.9702 23.0764 13.4202 23.0764 13.9702Z" stroke="#636366" stroke-width="1.5" stroke-linecap="round" stroke-linejoin="round"/>
<path d="M7.51758 12H14.5176" stroke="#636366" stroke-width="1.5" stroke-linecap="round" stroke-linejoin="round"/>
</svg>
