<svg width="16" height="17" viewBox="0 0 16 17" fill="none" xmlns="http://www.w3.org/2000/svg">
<path d="M7.83842 2.12134C11.4134 2.12134 14.3116 5.01948 14.3116 8.59453C14.3116 12.1695 11.4134 15.0677 7.83842 15.0677C6.79087 15.0677 5.77854 14.8182 4.86908 14.3479L2.39256 15.0388C1.96214 15.159 1.51579 14.9075 1.3956 14.4771C1.35582 14.3347 1.35584 14.1841 1.39563 14.0418L2.08674 11.5671C1.61534 10.6569 1.36523 9.64338 1.36523 8.59453C1.36523 5.01948 4.26338 2.12134 7.83842 2.12134ZM7.83842 3.09232C4.79964 3.09232 2.33621 5.55574 2.33621 8.59453C2.33621 9.54583 2.57751 10.461 3.03081 11.2728L3.12832 11.4474L2.40804 14.0264L4.98863 13.3065L5.16311 13.4038C5.97418 13.856 6.88829 14.0967 7.83842 14.0967C10.8772 14.0967 13.3406 11.6333 13.3406 8.59453C13.3406 5.55574 10.8772 3.09232 7.83842 3.09232ZM5.73464 9.24184H8.64647C8.91459 9.24184 9.13196 9.45921 9.13196 9.72733C9.13196 9.97312 8.94929 10.1762 8.7123 10.2084L8.64647 10.2128H5.73464C5.46651 10.2128 5.24915 9.99545 5.24915 9.72733C5.24915 9.48155 5.43179 9.27842 5.66876 9.24625L5.73464 9.24184ZM5.73464 6.97623H9.94512C10.2132 6.97623 10.4306 7.19359 10.4306 7.46172C10.4306 7.7075 10.2479 7.91063 10.011 7.94281L9.94512 7.94721H5.73464C5.46651 7.94721 5.24915 7.72984 5.24915 7.46172C5.24915 7.21593 5.43179 7.01281 5.66876 6.98066L5.73464 6.97623Z" fill="#212121"/>
</svg>
