<svg width="21" height="19" viewBox="0 0 21 19" fill="none" xmlns="http://www.w3.org/2000/svg">
<path fill-rule="evenodd" clip-rule="evenodd" d="M10.4925 17.6015C9.78211 17.6015 9.20675 17.0261 9.20675 16.3158C9.20675 15.6054 9.78211 15.0301 10.4925 15.0301C11.2028 15.0301 11.7782 15.6054 11.7782 16.3158C11.7782 17.0261 11.2028 17.6015 10.4925 17.6015ZM19.4925 15.6729H12.9733C12.6846 14.5376 11.6625 13.7443 10.4925 13.7443C9.32247 13.7443 8.30032 14.5376 8.01168 15.6729H1.49247C1.13825 15.6729 0.849609 15.9616 0.849609 16.3158C0.849609 16.67 1.13825 16.9586 1.49247 16.9586H8.01168C8.30032 18.0939 9.32247 18.8872 10.4925 18.8872C11.6625 18.8872 12.6846 18.0939 12.9733 16.9586H19.4925C19.8467 16.9586 20.1353 16.67 20.1353 16.3158C20.1353 15.9616 19.8467 15.6729 19.4925 15.6729ZM16.921 11.1729C16.2107 11.1729 15.6353 10.5976 15.6353 9.88721C15.6353 9.17685 16.2107 8.60149 16.921 8.60149C17.6314 8.60149 18.2068 9.17685 18.2068 9.88721C18.2068 10.5976 17.6314 11.1729 16.921 11.1729ZM19.4925 9.24435H19.4018C19.1132 8.10906 18.091 7.31578 16.921 7.31578C15.751 7.31578 14.7289 8.10906 14.4403 9.24435H1.49247C1.13825 9.24435 0.849609 9.53299 0.849609 9.88721C0.849609 10.2414 1.13825 10.5301 1.49247 10.5301H14.4403C14.7289 11.6653 15.751 12.4586 16.921 12.4586C18.091 12.4586 19.1132 11.6653 19.4018 10.5301H19.4925C19.8467 10.5301 20.1353 10.2414 20.1353 9.88721C20.1353 9.53299 19.8467 9.24435 19.4925 9.24435ZM4.0639 2.17292C4.77425 2.17292 5.34961 2.74828 5.34961 3.45864C5.34961 4.16899 4.77425 4.74435 4.0639 4.74435C3.35354 4.74435 2.77818 4.16899 2.77818 3.45864C2.77818 2.74828 3.35354 2.17292 4.0639 2.17292ZM1.49247 4.10149H1.58311C1.87175 5.23678 2.8939 6.03006 4.06389 6.03006C5.23389 6.03006 6.25604 5.23678 6.54468 4.10149H19.4925C19.8467 4.10149 20.1353 3.81285 20.1353 3.45864C20.1353 3.10442 19.8467 2.81578 19.4925 2.81578H6.54468C6.25604 1.68049 5.23389 0.887207 4.06389 0.887207C2.8939 0.887207 1.87175 1.68049 1.58311 2.81578H1.49247C1.13825 2.81578 0.849609 3.10442 0.849609 3.45864C0.849609 3.81285 1.13825 4.10149 1.49247 4.10149Z" fill="#E8F1FF"/>
</svg>
