<svg width="16" height="15" viewBox="0 0 16 15" fill="none" xmlns="http://www.w3.org/2000/svg">
<path fill-rule="evenodd" clip-rule="evenodd" d="M9.54077 2.1225C9.88077 2.2275 10.2058 2.3625 10.5158 2.5275L11.8905 1.7025C12.0339 1.61652 12.2018 1.58089 12.3677 1.60128C12.5336 1.62166 12.688 1.69688 12.8063 1.815L13.5698 2.5785C13.6879 2.69678 13.7631 2.85112 13.7835 3.01703C13.8039 3.18294 13.7682 3.3509 13.6823 3.49425L12.8573 4.869C13.0223 5.179 13.1573 5.504 13.2623 5.844L14.817 6.23325C14.9792 6.27388 15.1232 6.36754 15.226 6.49934C15.3289 6.63115 15.3848 6.79355 15.3848 6.96075V8.03925C15.3848 8.20645 15.3289 8.36885 15.226 8.50066C15.1232 8.63246 14.9792 8.72612 14.817 8.76675L13.2623 9.156C13.1573 9.496 13.0223 9.821 12.8573 10.131L13.6823 11.5057C13.7682 11.6491 13.8039 11.8171 13.7835 11.983C13.7631 12.1489 13.6879 12.3032 13.5698 12.4215L12.8063 13.185C12.688 13.3031 12.5336 13.3783 12.3677 13.3987C12.2018 13.4191 12.0339 13.3835 11.8905 13.2975L10.5158 12.4725C10.2058 12.6375 9.88077 12.7725 9.54077 12.8775L9.15152 14.4323C9.11089 14.5944 9.01723 14.7384 8.88542 14.8413C8.75361 14.9441 8.59121 15 8.42402 15H7.34552C7.17832 15 7.01592 14.9441 6.88411 14.8413C6.7523 14.7384 6.65864 14.5944 6.61802 14.4323L6.22877 12.8775C5.89179 12.7734 5.56535 12.6378 5.25377 12.4725L3.87902 13.2975C3.73567 13.3835 3.5677 13.4191 3.4018 13.3987C3.23589 13.3783 3.08154 13.3031 2.96327 13.185L2.19977 12.4215C2.08165 12.3032 2.00642 12.1489 1.98604 11.983C1.96566 11.8171 2.00129 11.6491 2.08727 11.5057L2.91227 10.131C2.747 9.81942 2.6114 9.49298 2.50727 9.156L0.952516 8.76675C0.790455 8.72615 0.646589 8.63261 0.543738 8.50095C0.440886 8.3693 0.384937 8.20707 0.384766 8.04V6.9615C0.38477 6.7943 0.440642 6.6319 0.543507 6.50009C0.646372 6.36829 0.790331 6.27463 0.952516 6.234L2.50727 5.84475C2.61227 5.50475 2.74727 5.17975 2.91227 4.86975L2.08727 3.495C2.00129 3.35165 1.96566 3.18369 1.98604 3.01778C2.00642 2.85187 2.08165 2.69753 2.19977 2.57925L2.96327 1.815C3.08154 1.69688 3.23589 1.62166 3.4018 1.60128C3.5677 1.58089 3.73567 1.61652 3.87902 1.7025L5.25377 2.5275C5.56377 2.3625 5.88877 2.2275 6.22877 2.1225L6.61802 0.56775C6.65861 0.40569 6.75216 0.261824 6.88381 0.158972C7.01547 0.0561202 7.1777 0.000171482 7.34477 0H8.42327C8.59046 4.39533e-06 8.75286 0.0558766 8.88467 0.158742C9.01648 0.261606 9.11014 0.405565 9.15077 0.56775L9.54077 2.1225ZM7.88477 10.5C8.68042 10.5 9.44348 10.1839 10.0061 9.62132C10.5687 9.05871 10.8848 8.29565 10.8848 7.5C10.8848 6.70435 10.5687 5.94129 10.0061 5.37868C9.44348 4.81607 8.68042 4.5 7.88477 4.5C7.08912 4.5 6.32605 4.81607 5.76344 5.37868C5.20084 5.94129 4.88477 6.70435 4.88477 7.5C4.88477 8.29565 5.20084 9.05871 5.76344 9.62132C6.32605 10.1839 7.08912 10.5 7.88477 10.5Z" fill="black"/>
</svg>
